<?xml version="1.0" ?><svg height="60px" version="1.1" viewBox="0 0 60 60" width="60px" xmlns="http://www.w3.org/2000/svg" xmlns:sketch="http://www.bohemiancoding.com/sketch/ns" xmlns:xlink="http://www.w3.org/1999/xlink"><title/><desc/><defs/><g fill="none" fill-rule="evenodd" id="Page-1" stroke="none" stroke-width="1"><g fill="#0A0B09" id="Fill-172-+-Fill-173-+-Fill-174" transform="translate(0.000000, 1.000000)"><path d="M22.997,24 L21.704,25.293 C21.314,25.684 21.314,26.316 21.704,26.707 C21.899,26.902 22.155,27 22.411,27 C22.667,27 22.923,26.902 23.118,26.707 L24.411,25.414 L25.704,26.707 C25.899,26.902 26.155,27 26.411,27 C26.667,27 26.923,26.902 27.118,26.707 C27.509,26.316 27.509,25.684 27.118,25.293 L25.825,24 L27.118,22.707 C27.509,22.316 27.509,21.684 27.118,21.293 C26.728,20.902 26.095,20.902 25.704,21.293 L24.411,22.586 L23.118,21.293 C22.727,20.902 22.095,20.902 21.704,21.293 C21.314,21.684 21.314,22.316 21.704,22.707 L22.997,24" id="Fill-172"/><path d="M32.704,26.707 C32.899,26.902 33.155,27 33.411,27 C33.667,27 33.923,26.902 34.118,26.707 L35.411,25.414 L36.704,26.707 C36.899,26.902 37.155,27 37.411,27 C37.667,27 37.923,26.902 38.118,26.707 C38.509,26.316 38.509,25.684 38.118,25.293 L36.825,24 L38.118,22.707 C38.509,22.316 38.509,21.684 38.118,21.293 C37.727,20.902 37.095,20.902 36.704,21.293 L35.411,22.586 L34.118,21.293 C33.727,20.902 33.095,20.902 32.704,21.293 C32.313,21.684 32.313,22.316 32.704,22.707 L33.997,24 L32.704,25.293 C32.313,25.684 32.313,26.316 32.704,26.707" id="Fill-173"/><path d="M59.798,34.297 C59.609,34.047 59.314,33.899 59,33.899 C54.679,33.899 51.806,27.896 50.881,17 L51.02,17 C51.572,17 52.02,16.553 52.02,16 C52.02,15.874 51.997,15.754 51.954,15.643 L50.986,9.836 C50.906,9.354 50.489,9 50,9 L48.545,9 C45.24,2.774 38.375,-2.012 30,0.839 C21.627,-2.008 14.76,2.774 11.455,9 L10,9 C9.511,9 9.094,9.354 9.014,9.836 L8.014,15.836 C7.965,16.126 8.047,16.422 8.237,16.646 C8.427,16.871 8.706,17 9,17 L9.119,17 C8.195,27.897 5.322,33.899 1,33.899 C0.686,33.899 0.391,34.047 0.202,34.297 C0.013,34.548 -0.048,34.872 0.039,35.174 C1.207,39.264 3.971,42.193 7.251,42.82 C7.679,42.901 8.105,42.941 8.529,42.941 C10.85,42.941 13.08,41.735 14.792,39.509 C15.05,39.174 15.292,38.738 15.522,38.234 C21.213,44.046 26.082,47 30,47 C31.019,47 32.109,46.797 33.251,46.404 L38.833,55.762 L38.848,55.781 L38.936,55.892 L39.005,55.975 C39.917,57.197 41.361,58 43,58 C45.757,58 48,55.757 48,53 C48,51.247 47.088,49.707 45.718,48.814 L45.695,48.79 L38.343,43.632 C40.262,42.257 42.287,40.475 44.478,38.234 C44.707,38.738 44.95,39.174 45.207,39.509 C46.92,41.735 49.15,42.941 51.471,42.941 C51.894,42.941 52.321,42.901 52.748,42.82 C56.029,42.193 58.793,39.264 59.961,35.174 C60.048,34.872 59.987,34.548 59.798,34.297 L59.798,34.297 Z M29.658,2.839 C29.879,2.919 30.121,2.919 30.342,2.839 C35.124,1.101 41.978,1.78 46.267,9 L13.733,9 C18.021,1.781 24.876,1.101 29.658,2.839 L29.658,2.839 Z M10.847,11 L49.153,11 L49.819,15 L10.181,15 L10.847,11 L10.847,11 Z M41.969,26.912 C40.963,29.946 38.457,33.733 35.729,35.485 C35.153,33.837 33.558,32 30,32 C26.444,32 24.849,33.836 24.272,35.484 C21.56,33.736 19.051,29.951 18.032,26.912 C18.553,22.798 18.832,18.866 18.946,17 L41.056,17 C41.17,18.866 41.448,22.798 41.969,26.912 L41.969,26.912 Z M13.207,38.29 C11.636,40.332 9.654,41.246 7.626,40.856 C5.389,40.428 3.435,38.517 2.347,35.764 C5.977,35.008 9.986,30.858 11.129,17 L16.942,17 C16.786,19.494 16.476,23.227 16.004,26.907 C15.371,31.842 14.447,36.679 13.207,38.29 L13.207,38.29 Z M35.507,44.085 L35.575,44.263 C35.765,44.565 36.089,44.729 36.421,44.729 L36.425,44.729 L41.467,48.266 C40.071,48.72 38.937,49.752 38.38,51.098 L34.871,45.214 C34.895,45.039 34.89,44.859 34.814,44.685 C34.7,44.421 34.484,44.236 34.234,44.146 L33.255,42.505 L35.507,44.085 L35.507,44.085 Z M43,56 C41.97,56 41.06,55.478 40.52,54.685 L40.493,54.64 C40.184,54.168 40,53.606 40,53 C40,51.346 41.346,50 43,50 C44.654,50 46,51.346 46,53 C46,54.654 44.654,56 43,56 L43,56 Z M36.602,42.41 L30.574,38.182 C30.188,37.91 29.667,37.945 29.319,38.268 C28.974,38.588 28.899,39.107 29.141,39.513 L32.197,44.636 C31.418,44.87 30.68,45 30,45 C27.588,45 23.25,43.46 16.283,36.146 C16.759,34.551 17.16,32.631 17.495,30.612 C19.207,33.729 21.854,36.772 24.616,37.923 C24.74,37.975 24.87,38 25,38 C25.195,38 25.389,37.943 25.555,37.832 C25.833,37.646 26,37.334 26,37 C26,36.878 26.046,34 30,34 C33.835,34 33.995,36.701 34,37 C34,37.334 34.168,37.646 34.446,37.832 C34.725,38.019 35.078,38.052 35.385,37.923 C38.158,36.767 40.802,33.732 42.507,30.623 C42.841,32.638 43.242,34.555 43.717,36.147 C41.155,38.837 38.767,40.937 36.602,42.41 L36.602,42.41 Z M52.373,40.856 C50.344,41.245 48.364,40.332 46.792,38.29 C44.629,35.477 43.426,22.839 43.06,17 L48.871,17 C50.015,30.857 54.024,35.008 57.653,35.763 C56.565,38.517 54.611,40.428 52.373,40.856 L52.373,40.856 Z" id="Fill-174"/></g></g></svg>